<?xml version="1.0" encoding="UTF-8"?>
<svg id="_Слой_1" data-name="Слой_1" xmlns="http://www.w3.org/2000/svg" version="1.1" xmlns:xlink="http://www.w3.org/1999/xlink" viewBox="0 0 1408 768">
  <!-- Generator: Adobe Illustrator 29.5.0, SVG Export Plug-In . SVG Version: 2.1.0 Build 137)  -->
  <defs>
    <style>
      .st0 {
        fill: url(#_Безымянный_градиент_4);
      }

      .st1 {
        fill: #1575b6;
      }

      .st2 {
        fill: #3059a3;
      }

      .st3, .st4 {
        fill: #d8f1f7;
      }

      .st5 {
        fill: #eef0f2;
      }

      .st6 {
        fill: #0876c9;
      }

      .st7 {
        fill: url(#_Безымянный_градиент_2);
      }

      .st8 {
        fill: url(#_Безымянный_градиент);
      }

      .st9 {
        fill: #c0edf6;
      }

      .st10 {
        fill: #12276d;
      }

      .st11 {
        fill: url(#_Безымянный_градиент_3);
      }

      .st12 {
        fill: #34a1df;
      }

      .st13 {
        fill: #83cde4;
      }

      .st4 {
        fill-opacity: .98;
      }
    </style>
    <linearGradient id="_Безымянный_градиент" data-name="Безымянный градиент" x1="299.93" y1="280.21" x2="314.48" y2="326.49" gradientTransform="translate(0 770) scale(1 -1)" gradientUnits="userSpaceOnUse">
      <stop offset="0" stop-color="#24a4e5"/>
      <stop offset="1" stop-color="#58c1ee"/>
    </linearGradient>
    <linearGradient id="_Безымянный_градиент_2" data-name="Безымянный градиент 2" x1="408.23" y1="241.28" x2="432.87" y2="311.81" gradientTransform="translate(0 770) scale(1 -1)" gradientUnits="userSpaceOnUse">
      <stop offset="0" stop-color="#29a7e6"/>
      <stop offset="1" stop-color="#77c8eb"/>
    </linearGradient>
    <linearGradient id="_Безымянный_градиент_3" data-name="Безымянный градиент 3" x1="420.39" y1="274.29" x2="436.73" y2="364.83" gradientTransform="translate(0 770) scale(1 -1)" gradientUnits="userSpaceOnUse">
      <stop offset="0" stop-color="#5bbee0"/>
      <stop offset="1" stop-color="#b1dff3"/>
    </linearGradient>
    <linearGradient id="_Безымянный_градиент_4" data-name="Безымянный градиент 4" x1="451.73" y1="352.99" x2="450.41" y2="347.63" gradientTransform="translate(0 770) scale(1 -1)" gradientUnits="userSpaceOnUse">
      <stop offset="0" stop-color="#aadeef"/>
      <stop offset="1" stop-color="#f7fffe"/>
    </linearGradient>
  </defs>
  <path class="st10" d="M324.42,250.91c.01-3.17-.11-1.22,1.58-3.28,2.44-.39,1.13.92,3.11,1.83,0,1.15-.51.77-.47,1.07l1.03.86-1.28,1.85c1.23,4.6-2.02,7.65,1.81,10.88l1.46.39,1.18,2.38c-.06,7.82-.43,17.71-.19,25.36-.13,3.91.66,23.07-1.95,24.75,7.85,8.53-2.05,9.41-2.39,14.51-.66,10.22,1.23,21.56,2.18,31.74-3.13,7.51-1.31,5.95-.81,12.61l-1.84,1.01c.34,3.67,1.97.14,1.42,4.94-.45,3.97-1.03,8.69-.76,12.61l1.85,1.21-1.87,1.26c-.15,8.14,2.64,11.03-.9,17.67.44,1.43.87,3.14,1.39,4.51,1.84,4.82-3.49,8.37.77,12.41l-1.74,1.65c.65,2.05,1.86,2.23,1.82,2.43-.39,2.35-2.48,4.25-1.33,6.18l1.5.73-.13.81-1.89.98.17.97,1.75.98c-.33,1.25-1.76,5.47-1.57,6.45.81,4.03,3.43,3.68-.22,6.3.79,1.23.27.69,1.84,1.38-.71,1.82-1.78,1.84-1.76,2.06.48,4.71.88,9.62,1.45,14.33.04.35-2.02.95-1.5,1.82.66,1.1.67.99,1.6,1.75-.54,1.36-.46.99-1.85,2.01l.53.48c.67.62.8.8,1.33,1.58-.88,4.25-1.71,8.83-.86,13.17,1.15,2.49,18.53,6.6,22.33,7.64,9.9,5.6,44.99,20.15,49.47,24.19l-72.86.06c-18.24.01-45.76,1.03-62.84-3.05-15.68-3.88-30.24-11.36-42.52-21.84-31.15-26.8-43.53-64.22-46.55-104.06-.52-6.31-.97-11.19.51-17.46.71-6.91-.28-14.2,1.38-21.43,1.1-.45,1.86-.79,2.92-1.33-.54-2.39-1.42-.54-2.58-2.8,6.83-4.11-1.9-14.46,7.3-19.89-3.68-7.05,8.38-20.06,9.13-26.12l.93-.68c11.91-22.91,33.47-45.28,59.12-52,5.01-3.02,6.95-4.62,12.87-4.83,7.36-2.03,19.49-2.23,27.34-2.41,3.39-.58,16.42-.46,20.43-.52l8.77-.08.4-.02Z"/>
  <path class="st3" d="M324.02,250.93l.4-.02c.12,15.56.51,34.45-.01,49.86.62,17.49-.89,11.15-5.49,24.44l-.24.71c-24.73,8.25-24.49.13-34.74-19.37-2.64-5.01-12.22-7.49-13.19-12.27,1.34-1.98,2.62-.91,5.95-2.24,2.85-4.76,2.99-12.89,3.48-18.63,1.78-3.24,3.32-.62,6.12-2.53-1.42-1.89-3.25-.54-5.21-3.27-.51-1.58-1.11-3.14-1.79-4.65-2.68-5.95-6-6.88-11.8-9.03,7.36-2.03,19.49-2.23,27.34-2.41,3.39-.58,16.42-.46,20.43-.52l8.77-.08Z"/>
  <path class="st13" d="M324.02,250.93l.4-.02c.12,15.56.51,34.45-.01,49.86-.93-4.6-.68-16.27-.68-21.47-9.09-8.43-16.14-28.05-28.91-27.78,3.39-.58,16.42-.46,20.43-.52l8.77-.08Z"/>
  <path class="st3" d="M315.25,251.01l8.77-.08c-.16,3.73-.17,7.71-.24,11.47-3.43-2.42-10.51-6.54-10.91-10.62l2.38-.77Z"/>
  <path class="st10" d="M195.49,310.77c3.22-.29,3.8-1.48,7.75-1.43,14.22.15,17.03,4.9,16.38,18.54-.06,1.2.15,2.4-.16,3.83l-4.83,1.09.13.83c2.48.53,3.12.61,5.66.66l-2.22,8.29c5.47,19.62,12.11,21.32,14.4,43.01-18.2,2.17-37.7-.91-56.17-2.55.71-6.91-.28-14.2,1.38-21.43,1.1-.45,1.86-.79,2.92-1.33-.54-2.39-1.42-.54-2.58-2.8,6.83-4.11-1.9-14.46,7.3-19.89-3.68-7.05,8.38-20.06,9.13-26.12l.93-.68Z"/>
  <path class="st3" d="M195.49,310.77c11.91-22.91,33.47-45.28,59.12-52-3.04,5.62-5.21,9.15-3.49,15.85,1.15,4.45,5.79,9.3,3.28,13.45-4.81,7.95-15.4,7.54-22,15.86-6.8,8.58-9.75,19.95-11.99,30.34-2.53-.04-3.18-.12-5.66-.66l-.13-.83,4.83-1.09c.3-1.43.1-2.63.16-3.83.65-13.64-2.16-18.39-16.38-18.54-3.94-.04-4.52,1.14-7.75,1.43Z"/>
  <path class="st6" d="M176.42,383.03c18.47,1.64,37.97,4.72,56.17,2.55,2.4,2.94,3.54,3.84,6.53,6.27.2,2.27.73,6.77.72,8.87l-.41-.33-.68.41c-6.51.35-15.49.93-21.83.61-14.04-.73-26.82-2.03-41.01-.91-.52-6.31-.97-11.19.51-17.46Z"/>
  <path class="st5" d="M330.2,264.13l1.46.39,1.18,2.38c-.06,7.82-.43,17.71-.19,25.36-.13,3.91.66,23.07-1.95,24.75l-1.26-.58c-1.68-3.47-.61-41.6-.29-47.81-.75-1.38-.87-1.49-1.05-3.02l2.1-1.47Z"/>
  <path class="st12" d="M238.75,400.79l.68-.41.41.33c.01.36.02.72.03,1.09.11,6.1-1.78,34.33-5.69,38.36.25.67,4.31-35.17,4.57-39.37Z"/>
  <path class="st2" d="M281.08,267.62c1.96,2.73,3.79,1.38,5.21,3.27-2.8,1.9-4.34-.71-6.12,2.53-.2-5.48-8.25-.28-11.86-2.46l-.61.22c3.83-1.25,4.74-1.45,8.71-1.75,2.96-.23,3.22-.03,4.68-1.8Z"/>
  <path class="st9" d="M304.35,342.86l20.04-10.94c.05,7.51.31,16.04.01,23.48.06,12.07-.12,24.54.07,36.56l.02,9.72c-12.3-.49-22.82-1.68-35.29-1.62l-1.15-.8c-.6-4.27-.6-6.99-.61-11.24,0-6.69-2.98-18.76-4.21-26.19,3.4-5.14.69-16.3-.26-22.83,2.48,2.59,5.27,5.24,7.85,7.76,5.59-1.21,8.25-1.79,13.52-3.91Z"/>
  <path class="st6" d="M287.46,388.02c15.36-.12,23.92,3.37,37.03,3.93l.02,9.72c-12.3-.49-22.82-1.68-35.29-1.62l-1.15-.8c-.6-4.27-.6-6.99-.61-11.24Z"/>
  <path class="st3" d="M304.35,342.86l20.04-10.94c.05,7.51.31,16.04.01,23.48-.27,2.34,0,4.38-2.04,5.57-4.01-1.53-6.29-9.67-9.16-12.82-1.48-1.63-3.73-1.18-5.89-1.15-2.32-1.5-1.69-1.21-2.97-4.12Z"/>
  <path class="st8" d="M290.95,436.57c10.96-1.5,23.03-2.46,34.11-3.55,0,3.17.15,8.59-.37,11.53-.17,17.71-.23,35.42-.19,53.13-5.27-1.15-12.17-2.45-17.23-3.91l-3.96-4.74c-20.77-6.93-13.27-5.06-14.4-27.02-.16-3.16-.19-6.43-.14-9.6l.59-15.04,1.59-.81Z"/>
  <path class="st6" d="M290.95,436.57c10.96-1.5,23.03-2.46,34.11-3.55,0,3.17.15,8.59-.37,11.53-5.33.87-33.43,4.7-35.92,7.87l.59-15.04,1.59-.81Z"/>
  <path class="st6" d="M268.08,435.86c.14,2.08-.21,3.46.97,4.55h.24c-.71,6.39-.88,12.98-1.2,19.41.27,7.06.93,13.2,1.69,20.19l-.58,1.44c-4.2.9-18.21-2.99-23.09-4.18,3.7-11.24,4.92-23.53,8.7-35.65,5.81-.42,10.96.38,13.27-5.76Z"/>
  <path class="st12" d="M269.77,480.01c-5.06-5.01-14.39-17.68-1.69-20.19.27,7.06.93,13.2,1.69,20.19Z"/>
  <path class="st6" d="M229.15,447.63c1.59-.22.87-.37,2.23.46,1.21,4.57-1.29,19.48-2.04,24.87-6.55-1.99-11.35-3.58-17.69-6.12-3.93-2.11-8.16-3.39-7.27-8.35,3.51-5.2,18.2-8.79,24.76-10.86Z"/>
  <path class="st3" d="M236.66,343.48c.63.4,1.12.99,1.41,1.68,1.27,3.12,1.39,18.47.09,22.37-3.17-7.12-4.06-16.59-1.49-24.06Z"/>
  <path class="st2" d="M288.06,399.26l1.15.8c2.14,13.65,1.39,22.96,1.73,36.52l-1.59.81c.77-12.23-.54-25.77-1.29-38.12Z"/>
  <path class="st12" d="M265.27,413.8c4.09,10.39,5.03,15.27,4.02,26.61h-.24c-1.18-1.1-.83-2.48-.97-4.55-.46-8.26-1.33-13.91-2.81-22.06Z"/>
  <path class="st7" d="M332.85,406.94c8.98.95,39.02,2.76,45.87,4.57,2.93-1.76,65.32-2.49,69.29-.72,22.17,3.66,42.31,6.48,63.93,13.27,26.85,8.44,35.1,19.25,2.14,28.84.46,2.38.59,5,2.45,6.43,3.83,2,5.1-.58,8.3,1.36.54,3.31-2.4,2.48.16,4.69,4.89,4.23.41,6.85,3.2,13.77l-.76,2.75c-1.17,7.23.27,18.51-2.8,22.01-3.85,1.27-6.64-.47-8.07,2.58-1.62,3.44-.93,11.15.22,14.65l.87.59c3.1-2.23,2.07-4.4,4.99-5.62,3.53,1.04,4.12,3.33,2.75,6.57-1.05.8-2.09,1.61-3.17,2.37,2.62,2.93,2.56,1.59,3.35,4.91l-.58,2.07c-5.05,2.18-6.74-.9-8.57-5.14-1.11,2.49-1.48,3.86-2.19,6.5-5.21.08-11.22.3-16.36.15l-26.22-.06c-23.36.33-47.52,0-70.94,0-4.47-4.04-39.56-18.59-49.47-24.19-3.79-1.04-21.18-5.14-22.33-7.64,2.35-1.14,3.53-2.37,3.83-4.99.98-8.59.21-18.36.14-27.02l-.05-8.25-.02-14.21.02-10.57v-29.68Z"/>
  <path class="st11" d="M332.81,402.85c8.98.95,39.02,2.76,45.87,4.57,2.93-1.76,65.32-2.49,69.29-.72,22.17,3.66,42.31,6.48,63.93,13.27,26.85,8.44,35.1,19.25,2.14,28.84-11.24,1.48-29.51,8.32-40.96,10.93-5.93,1.35-13.79,1.92-20.42,3.15-4.68-4.86-12.22-5.03-17.29-8.27-15.96,4.52-69.48,11.83-78.48,21.85-1.55,4.88,4.65,8.43,8.15,11.24-51.21-17.67,43.08-30.48,45.92-32.56-3.94-1.52-42.5,6.2-49.61,7-4.22.48-26.19,7.15-27.71,6.1l-.31-2.5-.46-.2-.05-8.25-.02-14.21.02-10.57v-29.68Z"/>
  <path class="st10" d="M332.81,402.85c8.98.95,39.02,2.76,45.87,4.57,15.98,3.93,47.99,9.07,59.97,18.05-10.23,1.75-37.78,3.07-48.8,3.57-17.83.8-39.59,3.11-57.05,3.49v-29.68Z"/>
  <path class="st6" d="M438.66,425.46c-.54,2.05-1.47,3.46-3.64,4.02-32.65,8.44-69.22,8.07-102.23,13.61l.02-10.57c17.45-.38,39.22-2.69,57.05-3.49,11.03-.5,38.58-1.82,48.8-3.57Z"/>
  <path class="st12" d="M332.81,457.3c10.54-1.47,17.23-4.84,28.83-5.34-8.73,3.33-18.89,4.18-27.93,7.4l-.39,6.4-.46-.2-.05-8.25Z"/>
  <path class="st3" d="M435.31,414.32c-5.76-1.78-13.4-.29-18.64-2.12l-.14-.54c6.31-3.84,52.49,4.99,62.76,7.48,6.6,1.6,19.92,4.64,23.78,10.64.98,1.53.77,2.39.51,4.06-3.26,5.57-28.39,13.17-34.95,12.34-.75.56-.78.46-1.7.78-.66-1.87-2.62-2.8-3.64-4.12-5.97-7.8-20.18-1.43-24.92-3,5.72-3.16,34.01-2.58,33.93-12.76-1.07-1.47-1.56-2.26-2.04-4.01-2.04-1.21-5.13-2.01-7.48-2.74l-.25.64,1.15.91-.03.64c-3.85-.03-4.42.18-7.54,2.51l-.28.21c-6.57-6.66-8.59-4.88-17.44-7.89-2.32-.78-2.09-.31-3.38-1.92l.31-1.13Z"/>
  <path class="st13" d="M470.24,423.08c2.48,1.15,3.84,1.59,5.56,3.72,1.83,6.86-11.35,9.6-16.52,10.83-.76.18-1.52.35-2.28.51,5.65,2.46,7.46,3.53,11.62,8.04-.75.56-.78.46-1.7.78-.66-1.87-2.62-2.8-3.64-4.12-5.97-7.8-20.18-1.43-24.92-3,5.72-3.16,34.01-2.58,33.93-12.76-1.07-1.47-1.56-2.26-2.04-4.01Z"/>
  <path class="st0" d="M443.52,415.55c4.73.71,14.84,2.94,19.25,4.79l-.25.64,1.15.91-.03.64c-3.85-.03-4.42.18-7.54,2.51l-.28.21c-6.57-6.66-8.59-4.88-17.44-7.89,2.51-.54,2.85-.66,5.14-1.82Z"/>
  <path class="st13" d="M435.31,414.32l8.21,1.23c-2.29,1.16-2.63,1.28-5.14,1.82-2.32-.78-2.09-.31-3.38-1.92l.31-1.13Z"/>
  <path class="st3" d="M452.66,462.89c6.63-1.23,14.49-1.8,20.42-3.15,11.45-2.61,29.72-9.45,40.96-10.93.46,2.38.59,5,2.45,6.43,3.83,2,5.1-.58,8.3,1.36.54,3.31-2.4,2.48.16,4.69,4.89,4.23.41,6.85,3.2,13.77l-.76,2.75c-1.17,7.23.27,18.51-2.8,22.01-3.85,1.27-6.64-.47-8.07,2.58-1.62,3.44-.93,11.15.22,14.65l.87.59c3.1-2.23,2.07-4.4,4.99-5.62,3.53,1.04,4.12,3.33,2.75,6.57-1.05.8-2.09,1.61-3.17,2.37,2.62,2.93,2.56,1.59,3.35,4.91l-.58,2.07c-5.05,2.18-6.74-.9-8.57-5.14-1.11,2.49-1.48,3.86-2.19,6.5-5.21.08-11.22.3-16.36.15-10.98-14.09-55.35-28.33-73.02-36.15-6.49-2.87-18.41-6.69-23.22-12.17-1.76-9.04,42.79-16.82,51.06-18.24Z"/>
  <path class="st6" d="M351.21,505.19c3.48.44,19.81,3.22,22.11,4,12.74,4.31,90.88,14.33,98.29,20.2-23.36.33-47.52,0-70.94,0-4.47-4.04-39.56-18.59-49.47-24.19Z"/>
  <path class="st3" d="M329.66,251.4c3.64-.52,11.29.32,15.12.24,11.08-.23,59.57-1.97,67.43,1.44,2.19,2.32,1.06,5.86,2,6.9,4.13,4.56,12.52,4.86,10.74,12.31,3.67,3.48,10.49-.42,9.86,9.87-.05.86,3.07-.1,3.94,2.13-.91,1.35-1.02,1.54-2.23,2.59.62,1.54,1.47,3.49,1.87,5.05.57,2.72,1.97,4.71,4.87,5.47,3.54-3.58-.65-9.36,8.5-6.23,1.14,1.71,1.02,2.17.89,4.27-3.01,4.49-6.36,2.7-6.24,5.27,2.3,2.25,3.13,2.65,6,4.19l1.34-.03c.12-1.28.18-2.28.22-3.56,2.99-.69,8.66-.05,11.58.94,1.11,1.93.95,1.08.68,3.19-2.81,3.57-4.43,3.17-4.92,6.48.84,2.15,1.52,2.63,3.15,4.17-.59,6.83-6.41,6.04,1.1,13.49.93.93.64,4.83.67,6.23,3.36,3.38,6.28,4.65,9.74,8.69l-.75,7.58.59.48c9.61-4.83,11.38,9.97,21.88,8.32l3.5-.76.63-.98c10.39,1.18,12.07,2.89,7.2,12.99l.58.16c1.67-1.44,2.29-1.95,4.51-2.52l1.27.53c1.06,2.61.18,7.59-2.64,8.7-2.2-1.1-3.39-2.84-4.97-4.73-.91,1.1-.62.85-.74,2.6.95,2.38,1.84,2.9,3.78,4.47-2.04,3.39-5.95.29-4.05,8.98-.93,2.51-1.65,2.97-.88,4.94l.6.33c21.89-2.67,41.21,4.16,61.49,10.02l-79.16-.08c-7.75,0-34.69-.28-40.83,1.17-3.97-1.77-66.36-1.03-69.29.72-6.86-1.81-36.9-3.62-45.87-4.57l-.05-11.6-1.7-24.56-.56-3.42c-.96-10.18-2.85-21.52-2.18-31.74.33-5.1,10.24-5.98,2.39-14.51,2.61-1.69,1.82-20.84,1.95-24.75-.24-7.65.13-17.54.19-25.36l-1.18-2.38-1.46-.39c-3.84-3.24-.59-6.28-1.81-10.88l1.28-1.85Z"/>
  <path class="st9" d="M332.65,292.27c9.72,3.29,8.48,9.9,12,18.05,3.89,9.01,14.99,13.3,22.78,18.41,3.88,2.54,7.52,7.41,11.89,7.85,1.68,1.46,1.89,1.8,3.07,3.7,1.73.62,2.17.59,4.04.72,3.8,5.73-8.57,30.11-12.55,35.12-2.95,4.72-4.7,11.7-6.08,13.42-1.39-.95-1.44-1.17-2.37-2.62l-.69.42.81-.28c-1.5,1.67-1.14,2.02-1.55,4.49-.63-.59-1.91-2.13-2.85-2.06,0,0-2.48,1.61-2.48,1.61-7.22.35-18.93.17-25.9.14l-1.7-24.56-.56-3.42c-.96-10.18-2.85-21.52-2.18-31.74.33-5.1,10.24-5.98,2.39-14.51,2.61-1.69,1.82-20.84,1.95-24.75Z"/>
  <path class="st3" d="M331.06,366.69c2.08,1.38,3.01,1.14,5.44.99,4.84,2.79,7.11,6.29,13.14,7.08,6.53-2.1,3.72-9.29,16.67-7.53,0,2.5-.37,6.07.99,7.92,2.04,1.18,4.18.96,6.56.97-2.95,4.72-4.7,11.7-6.08,13.42-1.39-.95-1.44-1.17-2.37-2.62l-.69.42.81-.28c-1.5,1.67-1.14,2.02-1.55,4.49-.63-.59-1.91-2.13-2.85-2.06,0,0-2.48,1.61-2.48,1.61-7.22.35-18.93.17-25.9.14l-1.7-24.56Z"/>
  <path class="st6" d="M332.62,391.39c6.97.03,18.68.21,25.9-.14,0,0,2.48-1.61,2.48-1.61.94-.07,2.22,1.47,2.85,2.06,6.23.49,10.76,1.06,16.93,2.08,19.55,3.4,35.46,4.33,55.43,2.5,7.54-.69,20.03,2.05,26.99,1.31,9.07-.97,36.24.3,43.14-1.86,21.89-2.67,41.21,4.16,61.49,10.02l-79.16-.08c-7.75,0-34.69-.28-40.83,1.17-3.97-1.77-66.36-1.03-69.29.72-6.86-1.81-36.9-3.62-45.87-4.57l-.05-11.6Z"/>
  <path class="st13" d="M332.84,266.91c2.66,1.98,10.24,5.34,10.11,8.52-.17,4.29,1.79,2.97,3.46,6.07,3.55,9.37,3.87,22.58,13.15,28.7.86-1.24.9-2.11,1.21-3.62l.82-.08c2.92,3.91-1.05,13.39,9.32,8.65,1.49,2-.86,3.34,2.97,4.87,2,.8,3.84.43,5.97.21.96,1.24,1.02,1.43,1.64,2.89,3.81.97,8.01.8,11.89.31,6.2,1.7,5.87,4.29,6.98,9.83,10.19,9.8,10.3,15.64,20.99,25.1-.4,2.78.03,2.81-1.53,4.67-7.68.88-16.44-12.74-24.46-8.33-1.77,2.59-1.05,4.91-1.48,7.66-1.39,2.51-2.74.18-4.2,2.71-.86,1.2-.15,6.01-.7,7.02-1.42,2.58-3.63,2.45-4.34,6.02-1.34,6.74-3.72,8.52-3.75,15.52-6.17-1.02-10.7-1.59-16.93-2.08.4-2.47.05-2.82,1.55-4.49l-.81.28.69-.42c.93,1.45.98,1.68,2.37,2.62,1.38-1.72,3.13-8.7,6.08-13.42,3.98-5.01,16.35-29.39,12.55-35.12-1.86-.14-2.31-.1-4.04-.72-1.18-1.9-1.39-2.24-3.07-3.7-4.37-.44-8.01-5.31-11.89-7.85-7.79-5.11-18.9-9.4-22.78-18.41-3.51-8.15-2.27-14.76-12-18.05-.24-7.65.13-17.54.19-25.36Z"/>
  <path class="st9" d="M393.4,323.42c3.4-.98,9.7-1.93,13.24-2.43-.45,2.96-1.37,6.57-.29,9.25,3.5,3.58,9.01-2.44,14.04-3.25,3.45,3.15,8.41,1.89,12.93,1.4.3,3.76.6,7.38.69,11.16-2.65,2.24-5.46,3.63-4.92,7.34,2.8,2.15,6.18-.7,8.8.75.91,2.04.81,2.45.64,4.7-2.12,2.27-5.57.8-8.46.16-2.31,1.74-6.14,4.9-8.69,5.86-10.69-9.46-10.8-15.3-20.99-25.1-1.11-5.54-.78-8.12-6.98-9.83Z"/>
  <path class="st5" d="M415.86,301.07c2.73-5.59,3.46-7.21,4.39-13.47.29-1.98.95-4.47,2.71-5.66,4.22.56,6.49,5.81,10.41,7.03,1.38-1.26,1.46-1.35,3.15-2.09.62,1.54,1.47,3.49,1.87,5.05-1.35,1.06-2.43-.83-4.47,1.01-3.02,2.73-3.58,9.54-4.18,13.46-5.85-5.21-6.1-4.81-13.87-5.34Z"/>
  <path class="st9" d="M402.03,370.36l4.94.8.59.99c-2.08,3.08-6.71,4.3-10.08,5.24-1.71-1.52-4.76-3.65-4.96-5.49,3.27-1.36,5.83-.09,9.5-1.54Z"/>
  <path class="st3" d="M439.74,252.81c2.94,3.64,3.44,4.74,7.44,7.23,2.32-.99-.57-3.91,3.62-7.56,4.66-1.2,7.81,1.57,12.03,4.06,3.32-1.7,8.7-1.45,12.6-3.02,3.6-1.44,8.91-2.22,12.2.37,2.14,3.28,1.73,7.68-1.03,10.46-2.05.59-1.22.67-3.11-.34-1.81-1.87-3.38-3.11-5.98-3.32-2.27,1.5-1.78,1.9-2.9,5.1-3.2,1.26-3.3-.08-7.42.31-3.99,2.1-4.1,8.63-9.31,9.37-3-1.13-1.29-1.1-3.22-4-2.39-3.6-8.44-1.04-13.91-2.22-.8-1.56-.07-5.31.15-7.26-2.66-4.07-13.29-.58-15.68-8.42l1.62-1.9c3.35,0,9.34.78,12.9,1.14Z"/>
  <path class="st3" d="M496.82,258.35c4.79.27,11.34,8.04,8,11.35-1.83.17-2.91.05-4.25,1.24.55,2.15.79,2.65.08,4.71-.77-.1-2.98-.55-3.26-1.04-3.41-6.13-2.73-7.12-8.36-11.56l7.79-4.71Z"/>
  <path class="st5" d="M497.69,360.88c.73-3.28.12-4.45,1.36-7.92,3.01-2.71,7.87-2.15,8.33,2.18-1.04,1.69-3.46,2.23-5.48,2.99l-.07,1.01-.63.98-3.5.76Z"/>
  <path class="st3" d="M549.39,461.41c3.53,0,3.33-.55,5.79,1.12,1.05,2.14.68,4.4.57,6.82-2.77-.17-5-.14-6.78-2.57-.58-2.4-.25-3.08.43-5.37Z"/>
  <path class="st3" d="M538.29,522.46c2.26-.04,5.26-.44,7.02,1.05,1.08,1.87.74,2.91.55,5.09-2.48.07-4.64.44-6.71-.74-1.4-2.64-.95-2.08-.87-5.4Z"/>
  <path class="st3" d="M561.9,482.24c1.89-.59,3.91.4,4.61,2.25s-.16,3.92-1.96,4.74c-1.27.57-2.75.39-3.84-.46-1.1-.86-1.62-2.25-1.37-3.62.25-1.37,1.24-2.48,2.57-2.9Z"/>
  <path class="st3" d="M560.58,462.3c1.09-.71,2.48-.76,3.61-.14,1.14.62,1.84,1.82,1.83,3.12s-.74,2.48-1.89,3.08c-1.66.86-3.71.27-4.66-1.34-.95-1.62-.46-3.69,1.11-4.72Z"/>
  <path class="st3" d="M528.15,475.06c1.19-.59,1.61-1.36,2.33-2.42,2.51-.45,1.56-.64,3.6.6.91,2.52.85,1.46.29,4.01-2.68,2.5-3.73,1.81-6.98.55l.76-2.75Z"/>
  <path class="st3" d="M538.99,482.37c3.11-.14,4.12-.22,6.19,1.95.6,2.1-.12,3.85-.71,5.95-4.68-2.21-6.01-2.72-5.48-7.9Z"/>
  <path class="st3" d="M552.49,491.09c2.4.65,2.59,1.89,3.03,3.95-.49,2.54-1.06,2.93-2.84,4.7-2.46-1.6-3.05-1.91-3.87-4.31.63-2.16,1.9-2.88,3.67-4.34Z"/>
  <path class="st3" d="M538.95,503.1c2.86-.14,4.3-.28,6.59,1.12.61,2.51.4,1.87-.38,4.61-2.11.02-3.86.24-5.68-.85-1.19-2.33-.78-1.91-.53-4.88Z"/>
  <path class="st3" d="M550.63,288.56c1.89.03,2.21.02,3.98.69.87,2.39-.01,3.15-1.01,6.21-2.51-.19-3.3-.38-4.72-1.9-.3-2.15.6-3.08,1.75-4.99Z"/>
  <path class="st3" d="M530.7,502.31c1.43-.99,3.39-.68,4.45.71,1.06,1.39.83,3.36-.51,4.48-.92.77-2.19.97-3.3.52-1.11-.45-1.89-1.47-2.02-2.66-.13-1.19.4-2.36,1.39-3.05Z"/>
  <path class="st3" d="M559.71,298.69c2.33.43,2.97.47,5.07,1.75,1.22,2.44.83,1.89.53,4.97-1.98.34-2.51.61-4.32-.06-1.64-2.52-1.11-3.18-1.29-6.67Z"/>
  <path class="st5" d="M580.69,462.18c3.24.2,3.5.18,5.05,2.78-.04,2.23-.18,2.5-1.27,4.46-2.83-.63-2.3-.12-4.28-1.9-.7-2.07-.12-3.27.51-5.34Z"/>
  <path class="st3" d="M538.96,339.59c2.19-.11,3.04-.36,4.99.64,1.19,1.85.83,3.82.76,6.13-2.16,0-2.42-.04-4.36-.98-1.47-1.62-1.29-3.6-1.39-5.79Z"/>
  <path class="st3" d="M571.15,492.61c1.14-.53,2.49-.35,3.45.46.96.82,1.36,2.12,1.02,3.33-.34,1.21-1.35,2.12-2.6,2.31-1.59.25-3.12-.7-3.59-2.24-.47-1.54.26-3.18,1.72-3.86Z"/>
  <path class="st3" d="M540.56,451.26c2.39.7,3.05.79,4.46,2.88.59,2.37.46,2.71-.26,5.06-2.01-.09-2.33-.08-4.1-1.01-1.11-2.43-.43-3.92-.1-6.93Z"/>
  <path class="st3" d="M510.65,330.26c1.42-.99,3.36-.68,4.39.71,1.03,1.38.78,3.34-.57,4.41-.91.73-2.15.9-3.22.45-1.08-.45-1.82-1.45-1.95-2.61s.39-2.3,1.35-2.96Z"/>
  <path class="st5" d="M593.53,460.9c2.41,1.38,2.26,1.43,2.88,3.51-.48,2.33-1.14,2.92-2.61,4.7-2.53-1.89-2.31-1.19-3.48-3.82.41-2.13,1.59-2.87,3.21-4.39Z"/>
  <path class="st3" d="M561.27,339.79c1.08-.56,2.38-.45,3.35.28.97.73,1.43,1.95,1.19,3.15-.24,1.19-1.14,2.14-2.32,2.44-1.55.4-3.16-.44-3.73-1.94-.57-1.5.08-3.19,1.5-3.93Z"/>
  <path class="st3" d="M561.18,522.78c1.71-.23,3.29.97,3.53,2.68s-.94,3.3-2.65,3.55c-1.73.26-3.34-.94-3.58-2.67-.25-1.73.97-3.33,2.7-3.56Z"/>
  <path class="st3" d="M549.51,369.64c1.99.12,2.74.27,4.68.74,1.68,2.27,1.14,2.4,1.31,5.78-2.01.05-2.35-.02-4.3-.53-1.61-1.61-1.45-3.57-1.69-5.98Z"/>
  <path class="st3" d="M540.15,512.91c1.26-1.13,3.18-1.06,4.36.15,1.18,1.21,1.19,3.14.03,4.36-.8.84-1.99,1.18-3.11.88-1.12-.3-1.98-1.19-2.25-2.32-.27-1.13.1-2.31.97-3.08Z"/>
  <path class="st3" d="M540.35,442.62c.89-.73,2.1-.91,3.16-.48,1.06.43,1.8,1.41,1.93,2.55.13,1.14-.38,2.26-1.32,2.92-1.38.96-3.27.66-4.29-.68-1.01-1.34-.79-3.25.51-4.31Z"/>
  <path class="st5" d="M581.52,432.84c.95-.59,2.15-.62,3.14-.08.98.54,1.6,1.57,1.62,2.69.02,1.12-.57,2.17-1.54,2.74-1.47.86-3.37.38-4.25-1.08-.88-1.46-.42-3.37,1.04-4.26Z"/>
  <path class="st5" d="M572.09,452.06c1.59-.29,3.14.68,3.57,2.24.43,1.56-.4,3.18-1.91,3.75-1.11.42-2.36.17-3.22-.63-.87-.8-1.21-2.03-.88-3.17.33-1.14,1.28-1.99,2.44-2.2Z"/>
  <path class="st3" d="M541.71,492.74c1.64-.42,3.32.54,3.78,2.17.47,1.63-.45,3.33-2.07,3.84-1.08.34-2.27.07-3.09-.72-.82-.78-1.15-1.95-.87-3.05.29-1.1,1.15-1.95,2.24-2.24Z"/>
  <path class="st3" d="M551.63,512.57c1.66-.34,3.29.7,3.67,2.35.38,1.65-.62,3.31-2.26,3.73-1.1.28-2.26-.05-3.04-.87-.78-.82-1.06-2-.72-3.08.34-1.08,1.24-1.89,2.35-2.12Z"/>
  <path class="st5" d="M592.1,472.63c1.52-.6,3.24.08,3.94,1.56.7,1.48.13,3.24-1.3,4.03-1.01.56-2.24.51-3.21-.13-.96-.64-1.49-1.76-1.37-2.9s.87-2.13,1.94-2.56Z"/>
  <path class="st3" d="M530.84,329.65c1.56-.65,3.36.06,4.04,1.61.68,1.55-.01,3.36-1.55,4.06-1.02.46-2.21.34-3.11-.32-.9-.66-1.38-1.75-1.25-2.86.13-1.11.85-2.07,1.88-2.5Z"/>
  <path class="st5" d="M571.11,442.41c1.01-.54,2.24-.48,3.19.16.95.64,1.47,1.75,1.35,2.89-.12,1.14-.86,2.12-1.93,2.54-1.52.61-3.26-.08-3.95-1.57-.69-1.49-.1-3.26,1.34-4.03Z"/>
  <path class="st3" d="M519.49,308.37c1.88.15,2.17.22,3.92.92,1.46,2.6.92,2.73.83,6.19-1.9.12-2.17.14-3.93-.55-1.4-2.53-.85-3.23-.82-6.56Z"/>
  <path class="st5" d="M562.48,491.86c2.29.55,2.57.98,2.97,3.12-.67,2.36-1.27,2.85-2.87,4.6-2.35-1.56-2-.86-3.05-3.19.36-2.32,1.29-2.94,2.95-4.54Z"/>
  <path class="st3" d="M550.85,422.32c1.06-.4,2.25-.19,3.11.55.86.74,1.24,1.89.99,2.99-.25,1.1-1.08,1.99-2.17,2.29-1.58.45-3.24-.43-3.75-1.99-.52-1.56.29-3.25,1.82-3.84Z"/>
  <path class="st5" d="M580.55,482.17c2.77.16,3.24.21,4.6,2.41.18,2.3-.23,3.46-.78,5.65-1.95-.93-2.24-1.28-3.79-2.82-.95-2.18-.58-2.99-.03-5.24Z"/>
  <path class="st3" d="M580.97,502.93c1.46-.82,3.3-.31,4.14,1.14.84,1.45.36,3.3-1.08,4.15-.95.57-2.12.58-3.08.03-.96-.55-1.55-1.57-1.54-2.67,0-1.1.6-2.12,1.56-2.65Z"/>
  <path class="st5" d="M580.55,320.31c.9-.75,2.14-.92,3.21-.44,1.07.47,1.77,1.52,1.82,2.68.05,1.17-.58,2.26-1.6,2.82-1.39.75-3.12.33-4-.98-.88-1.3-.63-3.07.58-4.08Z"/>
  <path class="st3" d="M561.13,512.52c1.54-.51,3.21.26,3.81,1.76.6,1.5-.07,3.21-1.53,3.91-1.03.48-2.24.36-3.15-.32-.91-.68-1.36-1.82-1.18-2.94.18-1.12.97-2.05,2.05-2.41Z"/>
  <path class="st5" d="M572.83,472.52c1.55-.06,2.9,1.06,3.13,2.6.23,1.54-.73,3-2.23,3.41-1.13.31-2.34-.07-3.11-.95-.77-.89-.96-2.14-.49-3.22.47-1.08,1.52-1.79,2.69-1.83Z"/>
  <path class="st5" d="M581.79,472.72c1.46-.7,3.2-.14,3.98,1.28.78,1.41.32,3.19-1.05,4.05-.96.6-2.17.62-3.15.06-.98-.57-1.56-1.63-1.52-2.76s.71-2.14,1.73-2.63Z"/>
  <path class="st5" d="M550.9,433.12c1.37-.89,3.2-.55,4.15.78.96,1.33.7,3.17-.58,4.18-.88.7-2.08.86-3.12.42-1.04-.45-1.74-1.43-1.84-2.55-.1-1.12.44-2.21,1.38-2.83Z"/>
  <path class="st5" d="M560.81,422.07c2.15.11,2.49.01,4.36.95.01,2.18-1.08,2.71-2.75,4.8-1.41.94-.65.73-2.4.56l-.63-1.04c-.12-3.48-.35-2.21,1.42-5.27Z"/>
  <path class="st5" d="M561.89,288.92c1.67-.25,3.23.91,3.47,2.58.24,1.67-.93,3.22-2.61,3.45-1.66.22-3.18-.93-3.42-2.59-.24-1.65.91-3.19,2.56-3.44Z"/>
  <path class="st5" d="M632.73,491.82c1.85.22,2.89.12,4.21,1.39.73,2.01-.06,3.61-.7,5.77-1.9-.17-2.16-.18-3.71-1.27-1.04-1.89-.3-3.77.2-5.89Z"/>
  <path class="st3" d="M499.36,329.03c2.87.18,3.25.05,4.86,1.74.4,2.48.67,3.31,1.87,5.51-2.3-.45-3.22-.51-5.23-1.85-1.56-1.92-1.4-2.98-1.51-5.4Z"/>
  <path class="st3" d="M550.57,330.48c.98-.6,2.21-.58,3.18.03.97.62,1.5,1.73,1.38,2.87-.12,1.14-.89,2.11-1.96,2.51-1.46.53-3.08-.13-3.75-1.53-.67-1.4-.17-3.07,1.15-3.88Z"/>
  <path class="st5" d="M590.6,441.66c2.05.12,2.4.1,4.19,1.06,1.37,1.83.98,3.66.9,6.07-2.22-.28-2.52-.32-4.33-1.63-1.16-1.92-.88-3.3-.76-5.51Z"/>
  <path class="st4" d="M520.48,320.13c.85-.73,2.04-.93,3.08-.51,1.04.42,1.76,1.38,1.87,2.5.11,1.12-.42,2.2-1.36,2.81-1.33.86-3.09.54-4.03-.72-.95-1.26-.75-3.05.45-4.08Z"/>
  <path class="st5" d="M570.96,330.31c1.32-.94,3.15-.66,4.13.63.98,1.29.75,3.13-.51,4.14-.85.68-2.01.85-3.01.44-1.01-.41-1.72-1.35-1.84-2.43-.12-1.08.35-2.15,1.24-2.78Z"/>
  <path class="st3" d="M529.47,522.04c2.18.25,2.72.19,4.27,1.69,1.16,2.21,1.1,2.66,1.03,5.08-2.14-.15-2.65-.11-4.55-1.05-1.36-2.52-.87-2.42-.75-5.71Z"/>
  <path class="st5" d="M581.8,350.42c1.44-.66,3.14-.08,3.88,1.32.74,1.4.25,3.13-1.1,3.95-.95.57-2.13.57-3.08,0-.95-.57-1.5-1.62-1.43-2.72.06-1.1.73-2.08,1.74-2.54Z"/>
  <path class="st3" d="M551.7,452.16c1.53-.49,3.17.32,3.71,1.83.54,1.51-.2,3.18-1.69,3.78-1.01.41-2.17.23-3.01-.46-.84-.7-1.24-1.79-1.03-2.87.21-1.07.98-1.95,2.02-2.28Z"/>
  <path class="st3" d="M541.06,422.37c.98-.48,2.14-.38,3.03.26.89.64,1.35,1.71,1.21,2.79-.14,1.08-.86,2-1.88,2.39-1.48.57-3.16-.13-3.79-1.59-.64-1.46,0-3.16,1.42-3.85Z"/>
  <path class="st3" d="M550.29,339.21c2.14.24,2.43.14,4,1.46.85,1.91.16,3.64-.31,5.8-2.02-.42-2.35-.46-3.92-1.77-.82-2.77-.46-2.31.23-5.48Z"/>
  <path class="st5" d="M570.99,461.7c2.74.53,2.99.61,4.12,2.92-.25,2.32-.28,2.64-1.7,4.48-1.98-1.02-2.38-1.15-3.64-2.96-.15-2.48.02-1.96,1.22-4.43Z"/>
  <path class="st5" d="M591.49,432.07c2.05.3,2.3.37,4.04,1.47,1,2.42.56,2.32.2,5.29-1.94.04-2.19.04-3.94-.77-1.14-2.59-.63-2.76-.3-5.99Z"/>
  <path class="st5" d="M612.14,493.34c1.32-.85,3.07-.51,3.98.76.91,1.27.67,3.04-.56,4.01-.85.68-2.01.83-3,.4-1-.43-1.68-1.38-1.77-2.46-.09-1.08.43-2.13,1.35-2.72Z"/>
  <path class="st5" d="M602.29,522.68c1.45-.55,3.07.13,3.7,1.54.63,1.41.05,3.07-1.32,3.78-.96.5-2.12.42-3.01-.19-.89-.62-1.36-1.68-1.23-2.76.13-1.08.85-1.99,1.86-2.37Z"/>
  <path class="st5" d="M580.37,339.19c1.62.36,2.07.61,3.59,1.32,1.49,1.7,1.18,3.52,1.12,5.78-2.1-.21-2.71-.11-4.36-1.36-1.08-1.93-.62-3.46-.36-5.74Z"/>
  <path class="st5" d="M592.1,452.02c.97-.42,2.09-.28,2.93.36.84.64,1.27,1.69,1.11,2.73-.15,1.05-.85,1.93-1.84,2.3-1.48.57-3.15-.15-3.74-1.62-.6-1.47.09-3.15,1.54-3.78Z"/>
  <path class="st3" d="M540.85,432.84c.96-.43,2.08-.3,2.93.33.84.63,1.28,1.67,1.14,2.72-.14,1.05-.84,1.93-1.82,2.32-1.47.58-3.14-.13-3.75-1.59-.61-1.46.06-3.14,1.5-3.78Z"/>
  <path class="st5" d="M583.12,442.45c1.56-.21,3,.87,3.24,2.43.24,1.56-.81,3.02-2.36,3.29-1.03.18-2.08-.21-2.74-1.02-.66-.81-.83-1.92-.44-2.89.39-.97,1.27-1.66,2.3-1.8Z"/>
  <path class="st5" d="M603.41,452.3c1.05-.15,2.1.3,2.73,1.15.63.86.74,1.99.28,2.95s-1.4,1.59-2.46,1.65c-1.55.08-2.88-1.07-3.03-2.61-.15-1.54.95-2.92,2.48-3.14Z"/>
  <path class="st5" d="M531.23,350.05c1.44-.57,3.07.1,3.69,1.53.62,1.42,0,3.07-1.41,3.73-.95.45-2.06.34-2.91-.27-.85-.61-1.29-1.64-1.16-2.68s.82-1.92,1.79-2.31Z"/>
  <path class="st5" d="M551.49,320.02c2.83.79,2.09.16,3.42,2.09-.65,2.7-.59,2.02-2.67,4.25-1.82-.28-1.95-.24-3.31-1.39.09-2.31.99-2.76,2.56-4.95Z"/>
  <path class="st1" d="M1190.55,350.74l14.38-.05-.06,9.25c8.12.31,15.8,1.91,22.26,7.23,12.57,10.35,13.99,31.43,3.67,43.83-6.97,8.37-15.74,9.62-25.89,10.63.04,2.61-.04,5.37-.06,7.99h-14.32s.01-7.74.01-7.74c-8.33-1.19-15.87-2.04-22.65-7.73-12.46-10.45-13.58-31.78-3.04-43.94,6.71-7.73,15.95-9.57,25.68-10.16v-9.31ZM1204.55,409.94c5.6-1.13,8.36-1.42,13.05-4.91,3.91-5.76,6.28-11.71,4.86-18.82-.85-4.43-3.51-8.3-7.33-10.69-3.48-2.21-6.35-2.67-10.36-3.1.06,10.2.62,27.89-.22,37.52ZM1179.71,406.38c2.81,1.35,6.02,3.14,9.18,2.71,2.38-1.84,1.86-31.7,1.51-35.97-1.35-.63-2.21-.3-3.85-.18-11.29,3.42-16.43,12.94-12.75,24.27,1.11,3.53,3.15,6.69,5.9,9.17Z"/>
  <path class="st1" d="M803.6,371.83c5.94-.28,10.46.04,15.97,2.7,20.51,9.88,18.75,49.05-3.67,55.49-9.38,2.7-17.95-1.12-25.88-5.71l.04,9.39c-.06,5.74.3,12.71.44,18.56l-14.32.03c.12-26.43-1.21-52.25-.08-79.08.71-.07,1.42-.13,2.13-.19,2.07-.16,8.41-.73,9.83,1.23.58.8-.13,1.78,1.73,3.37,4.04-1.17,7.03-4.17,13.18-5.65l.61-.15ZM807.4,419.49c18.98-7.35,14.24-38.73-5.83-36.08-1.92.85-4,1.74-5.63,3.09-9.28,7.68-8.72,27.9,4.01,31.89,2.36.74,4.94,1.51,7.45,1.1Z"/>
  <path class="st1" d="M719.01,373.03c13.2-.72,28.8,0,42.12.23-.1,14.92-.1,29.83-.03,44.75l7.87-.06c-.12,8.39,0,17.08.02,25.5-4.37-.15-8.88-.02-13.26.04.07-3.6.37-10.79-.62-13.91l-36.61.04v13.86c-4.36-.11-8.88,0-13.26.05-.01-8.18-.14-16.37-.38-24.55,2.28-.88,4.11-1.78,6.3-2.86,7.41-12.12,5.53-27.24,6.36-40.75.09-1.54.34-1.5,1.48-2.33ZM724.96,417.99h18.2c2.04-.41,2.2-.07,3.32-1.43,1.06-7.58.13-23.73.31-32.07l-16.77-.04c.1,12.46.07,21.8-5.07,33.55Z"/>
  <path class="st1" d="M1110.16,352.59c10.81-.66,29.19-1.02,37.21,7.17,9.44,9.63,9.56,27.81-.45,37.24-8.07,7.6-18.78,6.95-29.05,6.85l-1.36.1c-1.59,2.04-.78,21.65-.72,25.65-4.89-.04-9.85.02-14.74.03l-.27-76.78,9.38-.26ZM1115.44,391.32c6.78.27,14.27.85,20.15-3.16,4.52-5.76,6.58-14.56-.25-19.41-5.22-3.7-13.43-3.82-19.56-3.28-.69,6.96-.39,18.59-.34,25.85Z"/>
  <path class="st1" d="M992.93,371.46c16.32-.66,30.12,11.98,30.9,28.3.78,16.32-11.74,30.21-28.06,31.11-16.48.91-30.55-11.78-31.34-28.27-.79-16.49,12.01-30.47,28.5-31.13ZM996.58,418.85c6.05-2.76,9.09-4.68,11.79-11.3,1.8-4.42,1.52-10.49-.49-14.85-1.7-3.77-4.87-6.7-8.76-8.1-1.79-.65-5.15-1.23-7.06-1.22-5.66,2.53-9.34,4.79-11.74,10.95-1.9,4.98-1.78,10.51.33,15.4,1.64,3.77,4.74,6.71,8.59,8.14,2.26.86,4.94,1.1,7.34,1Z"/>
  <path class="st1" d="M869.45,371.48c16.41.11,29.63,13.51,29.52,29.93-.11,16.42-13.51,29.63-29.93,29.52-16.41-.12-29.62-13.51-29.51-29.93.11-16.41,13.5-29.63,29.91-29.52ZM870.74,419.12c5.55-2.11,9.65-5.07,12.15-10.67,2.07-4.75,2.14-10.13.2-14.93-2.55-6.24-8.37-9.91-15.03-10.18-10.61,3.44-17.1,13.23-13.21,24.22,1.53,4.35,4.74,7.9,8.92,9.84,2.2,1.02,4.58,1.4,6.96,1.71Z"/>
  <path class="st1" d="M646.73,373.27l14.36-.02v37.89c5.52-10.98,15.64-27.24,22.19-37.89h14.6c.04,17.36.67,39.29-.13,56.38h-13.14c-.15-12.74-.21-25.47-.16-38.19-2.56,3.91-5.43,9.4-7.87,13.57l-14.7,24.62c-4.98-.09-10.15-.02-15.15-.02.19-18.69.07-37.65,0-56.34Z"/>
  <path class="st1" d="M914.51,373.02c14.2-.4,28.4-.31,42.59.27.15,18.78.08,37.56-.22,56.33l-13.96.02c-.12-6.97.7-40.61-.6-44.92l-.92-.26-14.75.03c.94,13.46,1.72,43.96-18.5,47.54-7.16,1.27-7.23-8.73-7.23-13.81,20.43-2.34,8.43-37.13,13.6-45.19Z"/>
  <path class="st1" d="M600.97,350.72l44.94-.03-.07,14.26c-9.89-.14-20.02-.04-29.93-.06v33.56s0,31.06,0,31.06l-14.8.02-.12-78.82Z"/>
  <path class="st1" d="M1038.74,373.07c10.52-.01,21.04.06,31.56.23l-.04,11.59-24.72.08.05,26.64c.04,5.93,0,11.86-.12,17.78-4.47.39-9.3.24-13.81.2l-.15-56.3,7.24-.22Z"/>
  <path class="st1" d="M1075.01,412.7c11.6.25,16.83,9.1,6.32,16.47-.25,0-.51,0-.77-.02-11.15-.59-16.36-8.76-5.55-16.45Z"/>
  <rect class="st10" x="326.57" y="483.76" width="6.64" height="1.7"/>
  <rect class="st10" x="326.57" y="480.66" width="6.64" height="1.7"/>
  <rect class="st10" x="326.41" y="477.55" width="6.64" height="1.7"/>
  <rect class="st10" x="326.41" y="474.06" width="6.64" height="1.7"/>
  <rect class="st10" x="326.32" y="470.8" width="6.64" height="1.7"/>
  <rect class="st10" x="326.32" y="467.31" width="6.64" height="1.7"/>
  <rect class="st10" x="326.16" y="464.23" width="6.64" height="1.7"/>
  <rect class="st10" x="326.16" y="460.74" width="6.64" height="1.7"/>
  <rect class="st10" x="326.16" y="457.26" width="6.64" height="1.7"/>
  <rect class="st10" x="326.16" y="453.77" width="6.64" height="1.7"/>
  <rect class="st10" x="326.16" y="451.03" width="6.64" height="1.7"/>
  <rect class="st10" x="326.16" y="447.93" width="6.64" height="1.7"/>
  <rect class="st10" x="326.16" y="444.83" width="6.64" height="1.7"/>
  <rect class="st10" x="326.16" y="441.27" width="6.64" height="1.7"/>
  <rect class="st10" x="326.16" y="437.93" width="6.64" height="1.7"/>
  <rect class="st10" x="326.16" y="434.58" width="6.64" height="1.7"/>
  <rect class="st10" x="326.16" y="431.4" width="6.64" height="1.7"/>
  <rect class="st10" x="326.16" y="428.02" width="6.64" height="1.7"/>
  <rect class="st10" x="326.02" y="424.36" width="6.64" height="1.7"/>
  <rect class="st10" x="326.22" y="421.72" width="6.64" height="1.7"/>
  <rect class="st10" x="326.22" y="418.61" width="6.64" height="1.7"/>
  <rect class="st10" x="326.07" y="415.51" width="6.64" height="1.7"/>
  <rect class="st10" x="326.07" y="412.02" width="6.64" height="1.7"/>
  <rect class="st10" x="326.05" y="409.18" width="6.64" height="1.7"/>
  <polygon class="st10" points="332.81 407.25 326.17 407.25 326.17 405.55 332.67 405.69 332.81 407.25"/>
  <rect class="st10" x="326.17" y="402.47" width="6.64" height="1.7"/>
  <rect class="st10" x="326.15" y="398.98" width="6.64" height="1.7"/>
  <rect class="st10" x="326.14" y="395.49" width="6.64" height="1.7"/>
  <rect class="st10" x="326.12" y="392.62" width="6.64" height="1.7"/>
  <rect class="st10" x="326.12" y="389.52" width="6.64" height="1.7"/>
  <rect class="st10" x="325.96" y="386.41" width="6.64" height="1.7"/>
  <rect class="st10" x="325.56" y="382.92" width="6.64" height="1.7"/>
  <rect class="st10" x="325.31" y="379.55" width="6.64" height="1.7"/>
  <rect class="st10" x="325.12" y="376.32" width="6.64" height="1.7"/>
  <rect class="st10" x="324.86" y="372.96" width="6.64" height="1.7"/>
  <rect class="st10" x="324.64" y="369.54" width="6.64" height="1.7"/>
  <rect class="st10" x="324.38" y="366.17" width="6.64" height="1.7"/>
  <rect class="st10" x="326.03" y="496.72" width="6.64" height="1.7"/>
  <rect class="st10" x="326.3" y="493.62" width="6.64" height="1.7"/>
  <rect class="st10" x="326.57" y="490.51" width="6.64" height="1.7"/>
  <rect class="st10" x="326.57" y="487.02" width="6.64" height="1.7"/>
  <rect class="st10" x="326.19" y="483.76" width="6.64" height="1.7"/>
  <rect class="st10" x="326.2" y="303.83" width="6.64" height="1.7"/>
  <rect class="st10" x="326.2" y="300.72" width="6.64" height="1.7"/>
  <rect class="st10" x="326.05" y="297.62" width="6.64" height="1.7"/>
  <rect class="st10" x="326.05" y="294.13" width="6.64" height="1.7"/>
  <rect class="st10" x="326.03" y="291.29" width="6.64" height="1.7"/>
  <polygon class="st10" points="332.61 289.36 325.97 289.36 325.97 287.66 332.47 287.8 332.61 289.36"/>
  <rect class="st10" x="325.88" y="284.59" width="6.64" height="1.7"/>
  <rect class="st10" x="325.97" y="281.1" width="6.64" height="1.7"/>
  <rect class="st10" x="326.12" y="277.61" width="6.64" height="1.7"/>
  <rect class="st10" x="326.1" y="274.73" width="6.64" height="1.7"/>
  <rect class="st10" x="326.1" y="271.63" width="6.64" height="1.7"/>
  <rect class="st10" x="326.1" y="268.52" width="6.64" height="1.7"/>
  <rect class="st10" x="325.88" y="265.78" width="6.64" height="1.7"/>
  <rect class="st10" x="325.3" y="313.23" width="6.64" height="1.7"/>
  <rect class="st10" x="325.64" y="310.08" width="6.64" height="1.7"/>
  <rect class="st10" x="325.97" y="306.93" width="6.64" height="1.7"/>
</svg>